<?xml version="1.0" encoding="UTF-8"?>
<svg id="_Слой_4" data-name="Слой 4" xmlns="http://www.w3.org/2000/svg" viewBox="0 0 1024 1024">
  <defs>
    <style>
      .cls-1 {
        stroke: #3d506e;
        stroke-width: 70px;
      }

      .cls-1, .cls-2 {
        fill: none;
        stroke-miterlimit: 10;
      }

      .cls-3 {
        fill: #141a28;
      }

      .cls-2 {
        stroke: #141a28;
        stroke-width: 35px;
      }

      .cls-4 {
        fill: #3d506e;
      }
    </style>
  </defs>
  <circle class="cls-4" cx="513.22" cy="513.04" r="269.29"/>
  <polygon class="cls-4" points="994.67 511.76 769.18 454.4 769.18 569.12 994.67 511.76"/>
  <polygon class="cls-4" points="29.33 511.87 254.82 569.23 254.82 454.51 29.33 511.87"/>
  <polygon class="cls-4" points="308.09 151.55 335.25 317.82 435.41 261.88 308.09 151.55"/>
  <polygon class="cls-4" points="152.73 303.46 259.41 433.86 318.17 335.32 152.73 303.46"/>
  <polygon class="cls-4" points="154.2 718.52 266.33 592.78 320.84 693.73 154.2 718.52"/>
  <polygon class="cls-4" points="872.07 307.2 763.57 436.07 706.21 336.72 872.07 307.2"/>
  <polygon class="cls-4" points="873.99 717.19 765.48 588.31 708.12 687.66 873.99 717.19"/>
  <polygon class="cls-4" points="722.86 153.81 693.33 319.68 593.98 262.32 722.86 153.81"/>
  <polygon class="cls-4" points="724.91 870.39 695.38 704.52 596.03 761.88 724.91 870.39"/>
  <polygon class="cls-4" points="305.02 872.02 337.01 706.61 435.5 765.44 305.02 872.02"/>
  <polygon class="cls-4" points="511.41 993.33 449.6 767.83 573.22 767.83 511.41 993.33"/>
  <polygon class="cls-4" points="513.58 32 575.39 257.5 451.77 257.5 513.58 32"/>
  <circle class="cls-3" cx="514.13" cy="513.95" r="253.31"/>
  <circle class="cls-4" cx="512" cy="511.82" r="223.96"/>
  <circle class="cls-3" cx="512" cy="511.82" r="198.92"/>
  <circle class="cls-4" cx="512" cy="511.82" r="167.4"/>
  <polygon class="cls-3" points="514.13 90.57 463.94 287.87 564.32 287.87 514.13 90.57"/>
  <polygon class="cls-3" points="935.39 512.83 738.08 462.65 738.08 563.02 935.39 512.83"/>
  <polygon class="cls-3" points="90.74 511.82 288.04 562.01 288.04 461.64 90.74 511.82"/>
  <polygon class="cls-3" points="332.37 195.34 356.14 340.82 443.78 291.87 332.37 195.34"/>
  <polygon class="cls-3" points="197.24 329.1 290.58 443.19 341.99 356.98 197.24 329.1"/>
  <polygon class="cls-3" points="196.8 695.71 294.91 585.7 342.6 674.02 196.8 695.71"/>
  <polygon class="cls-3" points="828.06 331.26 733.12 444.03 682.94 357.1 828.06 331.26"/>
  <polygon class="cls-3" points="829.79 692.58 734.85 579.81 684.66 666.74 829.79 692.58"/>
  <polygon class="cls-3" points="697.56 199.64 671.72 344.77 584.79 294.58 697.56 199.64"/>
  <polygon class="cls-3" points="700.09 826.62 674.25 681.49 587.32 731.68 700.09 826.62"/>
  <polygon class="cls-3" points="331.97 828.04 359.95 683.32 446.13 734.79 331.97 828.04"/>
  <polygon class="cls-3" points="512 934.35 461.81 737.05 562.19 737.05 512 934.35"/>
  <path class="cls-1" d="M402.36,428.41c-14.86-9.9-32.54-15.64-51.52-15.64-52.73,0-95.48,44.35-95.48,99.05s42.75,99.05,95.48,99.05c18.97,0,36.65-5.74,51.52-15.64l221.7-168.39c14.35-8.94,31.14-14.08,49.09-14.08,52.73,0,95.48,44.35,95.48,99.05s-42.75,99.05-95.48,99.05c-17.95,0-34.75-5.14-49.09-14.08l-221.7-168.39Z"/>
  <path class="cls-2" d="M403.56,428.41c-14.86-9.9-33.74-15.64-52.71-15.64-52.73,0-95.48,44.35-95.48,99.05s42.75,99.05,95.48,99.05c18.97,0,36.65-5.74,51.52-15.64l221.7-168.39c14.35-8.94,31.14-14.08,49.09-14.08,52.73,0,95.48,44.35,95.48,99.05s-42.75,99.05-95.48,99.05c-17.95,0-34.75-5.14-49.09-14.08l-220.51-168.39Z"/>
</svg>