<?xml version="1.0" encoding="UTF-8"?>
<svg id="_Слой_2" data-name="Слой 2" xmlns="http://www.w3.org/2000/svg" viewBox="0 0 500 600">
  <defs>
    <style>
      .cls-1 {
        stroke: #3d506e;
        stroke-width: 40px;
      }

      .cls-1, .cls-2 {
        fill: none;
        stroke-miterlimit: 10;
      }

      .cls-2 {
        stroke: #141a28;
        stroke-width: 20px;
      }

      .cls-3 {
        fill: #141a28;
      }

      .cls-4 {
        fill: #3d506e;
      }
    </style>
  </defs>
  <g>
    <circle class="cls-4" cx="250.6" cy="253.09" r="131.69"/>
    <polygon class="cls-4" points="486.04 252.47 375.77 224.41 375.77 280.52 486.04 252.47"/>
    <polygon class="cls-4" points="13.96 252.52 124.23 280.57 124.23 224.47 13.96 252.52"/>
    <polygon class="cls-4" points="150.28 76.31 163.57 157.62 212.55 130.27 150.28 76.31"/>
    <polygon class="cls-4" points="74.31 150.6 126.48 214.37 155.21 166.18 74.31 150.6"/>
    <polygon class="cls-4" points="75.03 353.58 129.86 292.09 156.52 341.45 75.03 353.58"/>
    <polygon class="cls-4" points="426.08 152.43 373.02 215.45 344.97 166.87 426.08 152.43"/>
    <polygon class="cls-4" points="427.02 352.93 373.96 289.9 345.91 338.49 427.02 352.93"/>
    <polygon class="cls-4" points="353.11 77.42 338.67 158.53 290.09 130.48 353.11 77.42"/>
    <polygon class="cls-4" points="354.12 427.84 339.68 346.73 291.09 374.78 354.12 427.84"/>
    <polygon class="cls-4" points="148.78 428.64 164.43 347.75 212.59 376.52 148.78 428.64"/>
    <polygon class="cls-4" points="249.71 487.96 219.48 377.69 279.94 377.69 249.71 487.96"/>
    <polygon class="cls-4" points="250.77 17.85 281 128.12 220.55 128.12 250.77 17.85"/>
    <circle class="cls-3" cx="251.04" cy="253.54" r="123.87"/>
    <circle class="cls-4" cx="250" cy="252.5" r="109.52"/>
    <circle class="cls-3" cx="250" cy="252.5" r="97.28"/>
    <circle class="cls-4" cx="250" cy="252.5" r="81.86"/>
    <polygon class="cls-3" points="251.04 46.49 226.5 142.98 275.58 142.98 251.04 46.49"/>
    <polygon class="cls-3" points="457.05 252.99 360.56 228.45 360.56 277.53 457.05 252.99"/>
    <polygon class="cls-3" points="44 252.5 140.48 277.04 140.48 227.95 44 252.5"/>
    <polygon class="cls-3" points="162.16 97.73 173.78 168.87 216.64 144.93 162.16 97.73"/>
    <polygon class="cls-3" points="96.08 163.14 141.72 218.93 166.86 176.77 96.08 163.14"/>
    <polygon class="cls-3" points="95.86 342.42 143.84 288.62 167.16 331.81 95.86 342.42"/>
    <polygon class="cls-3" points="404.56 164.2 358.13 219.34 333.59 176.83 404.56 164.2"/>
    <polygon class="cls-3" points="405.41 340.89 358.98 285.74 334.44 328.25 405.41 340.89"/>
    <polygon class="cls-3" points="340.74 99.83 328.11 170.8 285.6 146.26 340.74 99.83"/>
    <polygon class="cls-3" points="341.98 406.44 329.35 335.47 286.84 360.01 341.98 406.44"/>
    <polygon class="cls-3" points="161.96 407.14 175.65 336.36 217.79 361.53 161.96 407.14"/>
    <polygon class="cls-3" points="250 459.12 225.46 362.63 274.54 362.63 250 459.12"/>
    <path class="cls-1" d="M196.38,211.7c-7.27-4.84-15.91-7.65-25.19-7.65-25.79,0-46.69,21.69-46.69,48.44s20.91,48.44,46.69,48.44c9.28,0,17.92-2.81,25.19-7.65l108.42-82.35c7.02-4.37,15.23-6.89,24.01-6.89,25.79,0,46.69,21.69,46.69,48.44s-20.91,48.44-46.69,48.44c-8.78,0-16.99-2.51-24.01-6.88l-108.42-82.35Z"/>
    <path class="cls-2" d="M196.38,211.7c-7.27-4.84-15.91-7.65-25.19-7.65-25.79,0-46.69,21.69-46.69,48.44s20.91,48.44,46.69,48.44c9.28,0,17.92-2.81,25.19-7.65l108.42-82.35c7.02-4.37,15.23-6.89,24.01-6.89,25.79,0,46.69,21.69,46.69,48.44s-20.91,48.44-46.69,48.44c-8.78,0-16.99-2.51-24.01-6.88l-108.42-82.35Z"/>
  </g>
  <g>
    <path class="cls-4" d="M37.6,569.91c-3.7,0-6.91-.62-9.65-1.87-2.74-1.25-4.85-3-6.34-5.26-1.49-2.26-2.23-4.92-2.23-7.99h10.8c0,1.78.68,3.18,2.05,4.21,1.37,1.03,3.23,1.55,5.58,1.55s4.02-.5,5.29-1.51c1.27-1.01,1.91-2.4,1.91-4.18,0-1.54-.48-2.86-1.44-3.96-.96-1.1-2.3-1.85-4.03-2.23l-5.33-1.22c-4.46-1.05-7.93-3.01-10.4-5.87-2.47-2.85-3.71-6.35-3.71-10.48,0-3.07.71-5.75,2.12-8.03,1.42-2.28,3.42-4.04,6.01-5.29,2.59-1.25,5.66-1.87,9.22-1.87,5.38,0,9.64,1.33,12.78,4,3.14,2.66,4.72,6.25,4.72,10.76h-10.8c0-1.68-.59-3-1.76-3.96-1.18-.96-2.87-1.44-5.08-1.44-2.06,0-3.65.47-4.75,1.4-1.1.94-1.66,2.27-1.66,4,0,1.54.44,2.84,1.33,3.92.89,1.08,2.15,1.81,3.78,2.2l5.62,1.3c4.66,1.06,8.18,2.96,10.58,5.72,2.4,2.76,3.6,6.28,3.6,10.55,0,3.07-.76,5.79-2.27,8.14-1.51,2.35-3.62,4.18-6.34,5.47-2.71,1.3-5.92,1.94-9.61,1.94Z"/>
    <path class="cls-4" d="M80.8,569.91c-3.5,0-6.55-.66-9.14-1.98-2.59-1.32-4.6-3.17-6.01-5.54-1.42-2.38-2.12-5.15-2.12-8.32v-9.36c0-3.17.71-5.94,2.12-8.32,1.42-2.38,3.42-4.22,6.01-5.54,2.59-1.32,5.64-1.98,9.14-1.98s6.61.66,9.18,1.98c2.57,1.32,4.56,3.17,5.98,5.54,1.42,2.38,2.12,5.15,2.12,8.32v9.36c0,3.17-.71,5.94-2.12,8.32-1.42,2.38-3.41,4.22-5.98,5.54-2.57,1.32-5.63,1.98-9.18,1.98ZM80.8,560.55c2.11,0,3.72-.56,4.82-1.69,1.1-1.13,1.66-2.72,1.66-4.79v-9.36c0-2.11-.55-3.72-1.66-4.82-1.1-1.1-2.71-1.66-4.82-1.66s-3.66.55-4.79,1.66c-1.13,1.1-1.69,2.71-1.69,4.82v9.36c0,2.06.56,3.66,1.69,4.79,1.13,1.13,2.72,1.69,4.79,1.69Z"/>
    <path class="cls-4" d="M123.28,569.19c-2.78,0-5.23-.59-7.34-1.76-2.11-1.18-3.76-2.82-4.93-4.93-1.18-2.11-1.76-4.56-1.76-7.34v-28.8h-12.24v-9.72h23.04v38.52c0,1.3.4,2.34,1.19,3.13s1.84,1.19,3.13,1.19h11.52v9.72h-12.6Z"/>
    <path class="cls-4" d="M158.35,569.91c-3.26,0-6.12-.52-8.57-1.55-2.45-1.03-4.36-2.46-5.72-4.28-1.37-1.82-2.05-3.96-2.05-6.41h10.8c0,1.15.51,2.08,1.55,2.77,1.03.7,2.36,1.04,4,1.04h3.17c1.97,0,3.47-.36,4.5-1.08,1.03-.72,1.55-1.73,1.55-3.02,0-1.2-.46-2.12-1.37-2.77-.91-.65-2.33-1.09-4.25-1.33l-4.61-.58c-4.94-.62-8.54-1.82-10.8-3.6-2.26-1.78-3.38-4.49-3.38-8.14,0-3.84,1.32-6.82,3.96-8.93,2.64-2.11,6.5-3.17,11.59-3.17h2.74c4.85,0,8.71,1.06,11.59,3.17,2.88,2.11,4.32,4.94,4.32,8.5h-10.8c0-.96-.47-1.74-1.4-2.34-.94-.6-2.17-.9-3.71-.9h-2.74c-1.78,0-3.07.3-3.89.9-.82.6-1.22,1.5-1.22,2.7,0,1.1.37,1.94,1.12,2.52.74.58,1.93.98,3.56,1.22l4.97.65c4.99.62,8.7,1.87,11.12,3.74s3.64,4.66,3.64,8.35c0,4.03-1.39,7.13-4.18,9.29-2.78,2.16-6.89,3.24-12.31,3.24h-3.17Z"/>
    <path class="cls-4" d="M207.52,569.19c-4.03,0-7.2-1.15-9.5-3.46s-3.46-5.47-3.46-9.5v-16.92h-10.44v-9.72h10.44v-11.16h10.8v11.16h14.76v9.72h-14.76v16.92c0,2.16,1.08,3.24,3.24,3.24h10.8v9.72h-11.88Z"/>
    <path class="cls-4" d="M229.84,569.19v-9.79h13.68v-20.09h-11.88v-9.72h21.96v29.81h11.52v9.79h-35.28ZM247.84,523.33c-1.97,0-3.54-.5-4.72-1.51-1.18-1.01-1.76-2.38-1.76-4.1s.59-3.1,1.76-4.1c1.18-1.01,2.75-1.51,4.72-1.51s3.54.5,4.72,1.51c1.18,1.01,1.76,2.38,1.76,4.1s-.59,3.1-1.76,4.1c-1.18,1.01-2.75,1.51-4.72,1.51Z"/>
    <path class="cls-4" d="M289.82,569.91c-3.5,0-6.58-.66-9.22-1.98-2.64-1.32-4.68-3.17-6.12-5.54-1.44-2.38-2.16-5.15-2.16-8.32v-9.36c0-3.21.72-6,2.16-8.35,1.44-2.35,3.48-4.19,6.12-5.51,2.64-1.32,5.71-1.98,9.22-1.98,5.23,0,9.41,1.32,12.53,3.96,3.12,2.64,4.78,6.24,4.97,10.8h-10.8c-.14-1.68-.8-3-1.98-3.96-1.18-.96-2.75-1.44-4.72-1.44-2.16,0-3.82.55-4.97,1.66-1.15,1.1-1.73,2.71-1.73,4.82v9.36c0,2.06.58,3.66,1.73,4.79,1.15,1.13,2.81,1.69,4.97,1.69,1.97,0,3.54-.47,4.72-1.4,1.18-.94,1.84-2.27,1.98-4h10.8c-.19,4.56-1.85,8.16-4.97,10.8-3.12,2.64-7.3,3.96-12.53,3.96Z"/>
    <path class="cls-4" d="M332.87,569.91c-3.5,0-6.56-.66-9.18-1.98-2.62-1.32-4.63-3.17-6.05-5.54-1.42-2.38-2.12-5.15-2.12-8.32v-9.36c0-3.17.71-5.94,2.12-8.32,1.42-2.38,3.43-4.22,6.05-5.54,2.62-1.32,5.68-1.98,9.18-1.98s6.54.66,9.11,1.98c2.57,1.32,4.56,3.17,5.98,5.54,1.42,2.38,2.12,5.15,2.12,8.32v7.2h-24.26v2.16c0,2.5.6,4.38,1.8,5.65,1.2,1.27,3,1.91,5.4,1.91,1.68,0,3.04-.29,4.07-.86s1.72-1.37,2.05-2.38h10.58c-.86,3.46-2.82,6.24-5.87,8.35-3.05,2.11-6.71,3.17-10.98,3.17ZM339.78,546.37v-1.8c0-2.45-.56-4.32-1.69-5.62s-2.87-1.94-5.22-1.94-4.12.67-5.29,2.02c-1.18,1.34-1.76,3.24-1.76,5.69v1.08l14.69-.14-.72.72Z"/>
    <path class="cls-3" d="M376,569.91c-3.5,0-6.55-.66-9.14-1.98-2.59-1.32-4.6-3.17-6.01-5.54-1.42-2.38-2.12-5.15-2.12-8.32v-22.32c0-3.17.71-5.94,2.12-8.32,1.42-2.38,3.42-4.22,6.01-5.54,2.59-1.32,5.64-1.98,9.14-1.98s6.61.66,9.18,1.98c2.57,1.32,4.56,3.17,5.98,5.54,1.42,2.38,2.12,5.15,2.12,8.32v22.32c0,3.17-.71,5.94-2.12,8.32-1.42,2.38-3.41,4.22-5.98,5.54-2.57,1.32-5.63,1.98-9.18,1.98ZM376,560.55c2.16,0,3.78-.56,4.86-1.69,1.08-1.13,1.62-2.72,1.62-4.79v-22.32c0-2.11-.53-3.72-1.58-4.82-1.06-1.1-2.69-1.66-4.9-1.66s-3.84.55-4.9,1.66c-1.06,1.1-1.58,2.71-1.58,4.82v22.32c0,2.06.54,3.66,1.62,4.79,1.08,1.13,2.7,1.69,4.86,1.69Z"/>
    <path class="cls-3" d="M402.35,582.15v-52.56h10.44v7.56h2.52l-2.52,2.52c0-3.41.94-6.06,2.81-7.96s4.44-2.84,7.7-2.84c3.98,0,7.17,1.4,9.58,4.21,2.4,2.81,3.6,6.56,3.6,11.27v10.08c0,3.12-.54,5.84-1.62,8.17-1.08,2.33-2.6,4.13-4.57,5.4-1.97,1.27-4.3,1.91-6.98,1.91-3.26,0-5.83-.95-7.7-2.84-1.87-1.9-2.81-4.55-2.81-7.96l2.52,2.52h-2.52l.36,9.72v10.8h-10.8ZM419.41,560.55c2.02,0,3.56-.56,4.64-1.69,1.08-1.13,1.62-2.72,1.62-4.79v-9.36c0-2.11-.54-3.72-1.62-4.82-1.08-1.1-2.63-1.66-4.64-1.66s-3.5.56-4.61,1.69c-1.1,1.13-1.66,2.72-1.66,4.79v9.36c0,2.06.55,3.66,1.66,4.79,1.1,1.13,2.64,1.69,4.61,1.69Z"/>
    <path class="cls-3" d="M460.74,569.91c-3.26,0-6.12-.52-8.57-1.55-2.45-1.03-4.36-2.46-5.72-4.28-1.37-1.82-2.05-3.96-2.05-6.41h10.8c0,1.15.51,2.08,1.55,2.77,1.03.7,2.36,1.04,4,1.04h3.17c1.97,0,3.47-.36,4.5-1.08,1.03-.72,1.55-1.73,1.55-3.02,0-1.2-.46-2.12-1.37-2.77-.91-.65-2.33-1.09-4.25-1.33l-4.61-.58c-4.94-.62-8.54-1.82-10.8-3.6-2.26-1.78-3.38-4.49-3.38-8.14,0-3.84,1.32-6.82,3.96-8.93,2.64-2.11,6.5-3.17,11.59-3.17h2.74c4.85,0,8.71,1.06,11.59,3.17,2.88,2.11,4.32,4.94,4.32,8.5h-10.8c0-.96-.47-1.74-1.4-2.34-.94-.6-2.17-.9-3.71-.9h-2.74c-1.78,0-3.07.3-3.89.9-.82.6-1.22,1.5-1.22,2.7,0,1.1.37,1.94,1.12,2.52.74.58,1.93.98,3.56,1.22l4.97.65c4.99.62,8.7,1.87,11.12,3.74s3.64,4.66,3.64,8.35c0,4.03-1.39,7.13-4.18,9.29-2.78,2.16-6.89,3.24-12.31,3.24h-3.17Z"/>
  </g>
</svg>