<?xml version="1.0" encoding="UTF-8"?>
<svg id="_Слой_5" data-name="Слой 5" xmlns="http://www.w3.org/2000/svg" viewBox="0 0 1450 490">
  <defs>
    <style>
      .cls-1 {
        fill: #fff;
      }

      .cls-2 {
        fill: #71717a;
      }

      .cls-3 {
        stroke: #71717a;
        stroke-width: 20px;
      }

      .cls-3, .cls-4 {
        fill: none;
        stroke-miterlimit: 10;
      }

      .cls-4 {
        stroke: #fff;
        stroke-width: 40px;
      }
    </style>
  </defs>
  <g>
    <circle class="cls-1" cx="246.92" cy="245.18" r="131.69"/>
    <polygon class="cls-1" points="482.36 244.56 372.09 216.51 372.09 272.61 482.36 244.56"/>
    <polygon class="cls-1" points="10.28 244.61 120.56 272.66 120.56 216.56 10.28 244.61"/>
    <polygon class="cls-1" points="146.6 68.41 159.89 149.72 208.87 122.36 146.6 68.41"/>
    <polygon class="cls-1" points="70.63 142.7 122.8 206.46 151.53 158.28 70.63 142.7"/>
    <polygon class="cls-1" points="71.35 345.67 126.18 284.18 152.84 333.54 71.35 345.67"/>
    <polygon class="cls-1" points="422.41 144.52 369.35 207.55 341.29 158.96 422.41 144.52"/>
    <polygon class="cls-1" points="423.34 345.02 370.28 281.99 342.23 330.58 423.34 345.02"/>
    <polygon class="cls-1" points="349.44 69.51 335 150.62 286.41 122.57 349.44 69.51"/>
    <polygon class="cls-1" points="350.44 419.94 336 338.82 287.41 366.87 350.44 419.94"/>
    <polygon class="cls-1" points="145.1 420.73 160.75 339.84 208.91 368.61 145.1 420.73"/>
    <polygon class="cls-1" points="246.03 480.06 215.81 369.78 276.26 369.78 246.03 480.06"/>
    <polygon class="cls-1" points="247.09 9.94 277.32 120.22 216.87 120.22 247.09 9.94"/>
    <circle class="cls-2" cx="247.36" cy="245.63" r="123.87"/>
    <circle class="cls-1" cx="246.32" cy="244.59" r="109.52"/>
    <circle class="cls-2" cx="246.32" cy="244.59" r="97.28"/>
    <circle class="cls-1" cx="246.32" cy="244.59" r="81.86"/>
    <polygon class="cls-2" points="247.36 38.58 222.82 135.07 271.91 135.07 247.36 38.58"/>
    <polygon class="cls-2" points="453.37 245.08 356.88 220.54 356.88 269.63 453.37 245.08"/>
    <polygon class="cls-2" points="40.32 244.59 136.8 269.13 136.8 220.05 40.32 244.59"/>
    <polygon class="cls-2" points="158.48 89.82 170.1 160.96 212.96 137.03 158.48 89.82"/>
    <polygon class="cls-2" points="92.4 155.23 138.04 211.03 163.18 168.87 92.4 155.23"/>
    <polygon class="cls-2" points="92.18 334.51 140.16 280.71 163.48 323.91 92.18 334.51"/>
    <polygon class="cls-2" points="400.88 156.29 354.46 211.43 329.91 168.92 400.88 156.29"/>
    <polygon class="cls-2" points="401.73 332.98 355.3 277.84 330.76 320.35 401.73 332.98"/>
    <polygon class="cls-2" points="337.06 91.92 324.43 162.89 281.92 138.35 337.06 91.92"/>
    <polygon class="cls-2" points="338.3 398.53 325.67 327.56 283.16 352.1 338.3 398.53"/>
    <polygon class="cls-2" points="158.28 399.23 171.97 328.45 214.11 353.63 158.28 399.23"/>
    <polygon class="cls-2" points="246.32 451.21 221.78 354.73 270.87 354.73 246.32 451.21"/>
    <path class="cls-4" d="M192.71,203.8c-7.27-4.84-15.91-7.65-25.19-7.65-25.79,0-46.69,21.69-46.69,48.44s20.91,48.44,46.69,48.44c9.28,0,17.92-2.81,25.19-7.65l108.42-82.35c7.02-4.37,15.23-6.89,24.01-6.89,25.79,0,46.69,21.69,46.69,48.44s-20.91,48.44-46.69,48.44c-8.78,0-16.99-2.51-24.01-6.88l-108.42-82.35Z"/>
    <path class="cls-3" d="M192.71,203.8c-7.27-4.84-15.91-7.65-25.19-7.65-25.79,0-46.69,21.69-46.69,48.44s20.91,48.44,46.69,48.44c9.28,0,17.92-2.81,25.19-7.65l108.42-82.35c7.02-4.37,15.23-6.89,24.01-6.89,25.79,0,46.69,21.69,46.69,48.44s-20.91,48.44-46.69,48.44c-8.78,0-16.99-2.51-24.01-6.88l-108.42-82.35Z"/>
  </g>
  <g>
    <path class="cls-1" d="M581.43,294.1c-7.14,0-13.35-1.21-18.64-3.62-5.29-2.41-9.37-5.79-12.24-10.15-2.87-4.36-4.31-9.5-4.31-15.44h20.86c0,3.43,1.32,6.14,3.97,8.14,2.64,2,6.23,2.99,10.78,2.99s7.76-.97,10.22-2.92c2.45-1.95,3.68-4.63,3.68-8.07,0-2.97-.93-5.52-2.78-7.65-1.86-2.13-4.45-3.57-7.79-4.31l-10.29-2.37c-8.62-2.04-15.32-5.82-20.1-11.33-4.78-5.51-7.16-12.26-7.16-20.23,0-5.93,1.37-11.1,4.1-15.51,2.74-4.4,6.61-7.81,11.61-10.22,5.01-2.41,10.94-3.62,17.8-3.62,10.38,0,18.61,2.57,24.69,7.72,6.07,5.15,9.11,12.08,9.11,20.79h-20.86c0-3.24-1.14-5.79-3.41-7.65-2.27-1.85-5.54-2.78-9.81-2.78-3.99,0-7.05.9-9.18,2.71-2.13,1.81-3.2,4.38-3.2,7.72,0,2.97.86,5.49,2.57,7.58,1.71,2.09,4.15,3.5,7.3,4.24l10.85,2.51c8.99,2.04,15.81,5.73,20.44,11.06,4.63,5.33,6.95,12.12,6.95,20.37,0,5.93-1.46,11.17-4.38,15.72-2.92,4.54-7,8.07-12.24,10.57-5.24,2.5-11.43,3.75-18.57,3.75Z"/>
    <path class="cls-1" d="M664.87,294.1c-6.77,0-12.66-1.28-17.66-3.82-5.01-2.55-8.88-6.12-11.61-10.71-2.74-4.59-4.1-9.94-4.1-16.06v-18.08c0-6.12,1.37-11.47,4.1-16.06,2.73-4.59,6.61-8.16,11.61-10.71,5.01-2.55,10.89-3.83,17.66-3.83s12.77,1.28,17.73,3.83c4.96,2.55,8.81,6.12,11.54,10.71,2.73,4.59,4.1,9.94,4.1,16.06v18.08c0,6.12-1.37,11.47-4.1,16.06-2.74,4.59-6.58,8.16-11.54,10.71-4.96,2.55-10.87,3.82-17.73,3.82ZM664.87,276.02c4.08,0,7.19-1.09,9.32-3.27,2.13-2.18,3.2-5.26,3.2-9.25v-18.08c0-4.08-1.07-7.18-3.2-9.32-2.13-2.13-5.24-3.2-9.32-3.2s-7.07,1.07-9.25,3.2c-2.18,2.13-3.27,5.24-3.27,9.32v18.08c0,3.99,1.09,7.07,3.27,9.25,2.18,2.18,5.26,3.27,9.25,3.27Z"/>
    <path class="cls-1" d="M746.92,292.71c-5.38,0-10.11-1.13-14.19-3.41-4.08-2.27-7.26-5.45-9.53-9.53-2.27-4.08-3.41-8.81-3.41-14.19v-55.63h-23.64v-18.77h44.5v74.4c0,2.5.77,4.52,2.3,6.05,1.53,1.53,3.55,2.3,6.05,2.3h22.25v18.77h-24.34Z"/>
    <path class="cls-1" d="M814.65,294.1c-6.31,0-11.82-1-16.55-2.99-4.73-1.99-8.41-4.75-11.06-8.28-2.64-3.52-3.97-7.65-3.97-12.38h20.86c0,2.22.99,4.01,2.99,5.35,1.99,1.34,4.56,2.02,7.72,2.02h6.12c3.8,0,6.7-.7,8.69-2.09,1.99-1.39,2.99-3.34,2.99-5.84,0-2.32-.88-4.1-2.64-5.36-1.76-1.25-4.5-2.11-8.21-2.57l-8.9-1.11c-9.55-1.2-16.5-3.52-20.86-6.95-4.36-3.43-6.54-8.67-6.54-15.72,0-7.42,2.55-13.16,7.65-17.25,5.1-4.08,12.56-6.12,22.39-6.12h5.29c9.36,0,16.83,2.04,22.39,6.12,5.56,4.08,8.35,9.55,8.35,16.41h-20.86c0-1.85-.91-3.36-2.71-4.52-1.81-1.16-4.2-1.74-7.16-1.74h-5.29c-3.43,0-5.93.58-7.51,1.74-1.58,1.16-2.36,2.9-2.36,5.22,0,2.13.72,3.76,2.15,4.87,1.44,1.11,3.73,1.9,6.89,2.37l9.6,1.25c9.64,1.21,16.81,3.62,21.49,7.23,4.68,3.62,7.02,8.99,7.02,16.13,0,7.79-2.69,13.77-8.07,17.94-5.38,4.17-13.31,6.26-23.78,6.26h-6.12Z"/>
    <path class="cls-1" d="M909.64,292.71c-7.79,0-13.91-2.23-18.36-6.68-4.45-4.45-6.68-10.57-6.68-18.36v-32.68h-20.17v-18.77h20.17v-21.56h20.86v21.56h28.51v18.77h-28.51v32.68c0,4.17,2.09,6.26,6.26,6.26h20.86v18.77h-22.95Z"/>
    <path class="cls-1" d="M952.75,292.71v-18.91h26.42v-38.8h-22.95v-18.77h42.42v57.58h22.25v18.91h-68.15ZM987.52,204.12c-3.8,0-6.84-.97-9.11-2.92-2.27-1.95-3.41-4.59-3.41-7.93s1.14-5.98,3.41-7.93c2.27-1.95,5.31-2.92,9.11-2.92s6.84.97,9.11,2.92c2.27,1.95,3.41,4.59,3.41,7.93s-1.14,5.98-3.41,7.93c-2.27,1.95-5.31,2.92-9.11,2.92Z"/>
    <path class="cls-1" d="M1068.6,294.1c-6.77,0-12.7-1.28-17.8-3.82-5.1-2.55-9.04-6.12-11.82-10.71-2.78-4.59-4.17-9.94-4.17-16.06v-18.08c0-6.21,1.39-11.59,4.17-16.13,2.78-4.54,6.72-8.09,11.82-10.64,5.1-2.55,11.03-3.83,17.8-3.83,10.1,0,18.17,2.55,24.2,7.65,6.03,5.1,9.22,12.06,9.6,20.86h-20.86c-.28-3.24-1.55-5.79-3.82-7.65-2.27-1.85-5.31-2.78-9.11-2.78-4.17,0-7.37,1.07-9.6,3.2-2.22,2.13-3.34,5.24-3.34,9.32v18.08c0,3.99,1.11,7.07,3.34,9.25,2.23,2.18,5.43,3.27,9.6,3.27,3.8,0,6.84-.91,9.11-2.71,2.27-1.81,3.55-4.38,3.82-7.72h20.86c-.37,8.81-3.57,15.76-9.6,20.86-6.03,5.1-14.09,7.65-24.2,7.65Z"/>
    <path class="cls-1" d="M1151.77,294.1c-6.77,0-12.68-1.28-17.73-3.82-5.06-2.55-8.95-6.12-11.68-10.71-2.74-4.59-4.1-9.94-4.1-16.06v-18.08c0-6.12,1.37-11.47,4.1-16.06,2.73-4.59,6.63-8.16,11.68-10.71,5.05-2.55,10.96-3.83,17.73-3.83s12.63,1.28,17.59,3.83c4.96,2.55,8.81,6.12,11.54,10.71,2.73,4.59,4.1,9.94,4.1,16.06v13.91h-46.87v4.17c0,4.82,1.16,8.46,3.48,10.92,2.32,2.46,5.79,3.69,10.43,3.69,3.24,0,5.86-.56,7.86-1.67,1.99-1.11,3.31-2.64,3.96-4.59h20.44c-1.67,6.68-5.45,12.05-11.33,16.13-5.89,4.08-12.96,6.12-21.21,6.12ZM1165.12,248.62v-3.48c0-4.73-1.09-8.35-3.27-10.85s-5.54-3.75-10.08-3.75-7.95,1.3-10.22,3.89c-2.27,2.6-3.41,6.26-3.41,10.99v2.09l28.37-.28-1.39,1.39Z"/>
    <path class="cls-2" d="M1235.07,294.1c-6.77,0-12.66-1.28-17.66-3.82-5.01-2.55-8.88-6.12-11.61-10.71-2.74-4.59-4.1-9.94-4.1-16.06v-43.11c0-6.12,1.37-11.47,4.1-16.06,2.73-4.59,6.61-8.16,11.61-10.71,5.01-2.55,10.89-3.83,17.66-3.83s12.77,1.28,17.73,3.83c4.96,2.55,8.81,6.12,11.54,10.71,2.73,4.59,4.1,9.94,4.1,16.06v43.11c0,6.12-1.37,11.47-4.1,16.06-2.74,4.59-6.58,8.16-11.54,10.71-4.96,2.55-10.87,3.82-17.73,3.82ZM1235.07,276.02c4.17,0,7.3-1.09,9.39-3.27,2.09-2.18,3.13-5.26,3.13-9.25v-43.11c0-4.08-1.02-7.18-3.06-9.32-2.04-2.13-5.19-3.2-9.46-3.2s-7.42,1.07-9.46,3.2c-2.04,2.13-3.06,5.24-3.06,9.32v43.11c0,3.99,1.04,7.07,3.13,9.25,2.09,2.18,5.22,3.27,9.39,3.27Z"/>
    <path class="cls-2" d="M1285.97,317.74v-101.52h20.17v14.6h4.87l-4.87,4.87c0-6.58,1.81-11.7,5.42-15.37,3.62-3.66,8.58-5.49,14.88-5.49,7.69,0,13.86,2.71,18.5,8.14,4.63,5.43,6.95,12.68,6.95,21.77v19.47c0,6.03-1.04,11.29-3.13,15.78-2.09,4.5-5.03,7.98-8.83,10.43-3.8,2.46-8.3,3.69-13.49,3.69-6.31,0-11.27-1.83-14.88-5.49-3.62-3.66-5.42-8.78-5.42-15.37l4.87,4.87h-4.87l.69,18.77v20.86h-20.86ZM1318.93,276.02c3.89,0,6.88-1.09,8.97-3.27,2.09-2.18,3.13-5.26,3.13-9.25v-18.08c0-4.08-1.04-7.18-3.13-9.32-2.09-2.13-5.08-3.2-8.97-3.2s-6.77,1.09-8.9,3.27c-2.13,2.18-3.2,5.26-3.2,9.25v18.08c0,3.99,1.07,7.07,3.2,9.25,2.13,2.18,5.1,3.27,8.9,3.27Z"/>
    <path class="cls-2" d="M1398.76,294.1c-6.31,0-11.82-1-16.55-2.99-4.73-1.99-8.41-4.75-11.06-8.28-2.64-3.52-3.97-7.65-3.97-12.38h20.86c0,2.22.99,4.01,2.99,5.35,1.99,1.34,4.56,2.02,7.72,2.02h6.12c3.8,0,6.7-.7,8.69-2.09,1.99-1.39,2.99-3.34,2.99-5.84,0-2.32-.88-4.1-2.64-5.36-1.76-1.25-4.5-2.11-8.21-2.57l-8.9-1.11c-9.55-1.2-16.5-3.52-20.86-6.95-4.36-3.43-6.54-8.67-6.54-15.72,0-7.42,2.55-13.16,7.65-17.25,5.1-4.08,12.56-6.12,22.39-6.12h5.29c9.36,0,16.83,2.04,22.39,6.12,5.56,4.08,8.35,9.55,8.35,16.41h-20.86c0-1.85-.91-3.36-2.71-4.52-1.81-1.16-4.2-1.74-7.16-1.74h-5.29c-3.43,0-5.93.58-7.51,1.74-1.58,1.16-2.36,2.9-2.36,5.22,0,2.13.72,3.76,2.15,4.87,1.44,1.11,3.73,1.9,6.89,2.37l9.6,1.25c9.64,1.21,16.81,3.62,21.49,7.23s7.02,8.99,7.02,16.13c0,7.79-2.69,13.77-8.07,17.94-5.38,4.17-13.31,6.26-23.78,6.26h-6.12Z"/>
  </g>
</svg>